<svg width="125" height="166" viewBox="0 0 125 166" fill="none" xmlns="http://www.w3.org/2000/svg">
<g clip-path="url(#clip0_31_35171)">
<path d="M115.575 36.8203C115.499 36.2705 115.391 35.7256 115.25 35.1886C114.734 33.2367 113.892 31.3457 112.986 29.5548C112.254 28.1012 111.292 26.8368 110.298 25.5515C109.346 24.3188 108.404 23.1317 107.269 22.0649C105.848 20.7303 104.269 19.5457 102.694 18.4099C100.242 16.641 97.4974 15.4918 94.7031 14.3676C92.764 13.5923 90.7463 13.03 88.6857 12.6907C88.047 12.584 87.4047 12.49 86.7649 12.4022C85.9344 12.2525 85.0968 12.1459 84.2554 12.0826C83.6926 12.046 83.1282 12.0433 82.5651 12.0746C81.9584 12.1096 81.3523 12.1604 80.7468 12.2271C78.6076 12.465 76.4428 12.7334 74.3341 13.1952C73.1468 13.4554 71.9738 13.7773 70.82 14.1596C70.2381 14.3519 69.6614 14.5591 69.0901 14.7811C68.8054 14.893 68.5208 15.008 68.2361 15.1264C67.7701 15.3195 67.3049 15.5143 66.8405 15.7107C65.6839 16.1468 64.5685 16.6851 63.5075 17.3193C63.2314 17.4819 62.9573 17.6482 62.6853 17.8182C62.5487 17.9036 62.413 17.9898 62.2784 18.0768C62.1137 18.1842 61.9588 18.2873 61.8118 18.3885C60.7084 18.9644 59.8654 19.8891 59.0724 20.8211C58.8804 21.0472 58.6905 21.2758 58.5027 21.5068C58.2044 21.8728 57.875 22.2387 57.5651 22.6114C57.4484 22.7172 57.3321 22.8235 57.2162 22.9305C56.9641 23.1635 56.7152 23.3995 56.4696 23.6386C55.9743 24.1201 55.4912 24.6134 55.0203 25.1184C54.0801 26.1261 53.1855 27.1747 52.3364 28.2641C50.3552 30.8004 48.5246 33.4014 46.9515 36.2128C46.566 36.9041 46.1935 37.6005 45.834 38.3019C45.4918 38.9729 45.0136 39.7659 44.7202 40.5637C44.1242 41.4403 43.6661 42.4547 43.1842 43.3855C42.6279 44.4603 42.0952 45.5471 41.5861 46.6459C41.0097 47.8866 40.4662 49.1419 39.9392 50.4027C39.7196 50.9261 39.5042 51.4511 39.2932 51.9777C39.1102 52.4278 38.9272 52.8609 38.7954 53.3141L38.7662 53.369C38.3215 54.2163 38.5222 55.3978 39.4231 55.8742C40.2673 56.3201 41.4531 56.1231 41.9283 55.2173C41.9533 55.174 41.9704 55.1429 41.9801 55.1227C42.0688 55.0109 42.153 54.896 42.2327 54.7781C42.3108 54.6695 42.3858 54.5591 42.4626 54.4499C42.6428 54.1937 42.8235 53.9386 43.0049 53.6844C43.3441 53.2107 43.6871 52.7398 44.0339 52.2717C44.3731 51.8138 44.7163 51.359 45.0636 50.9072L45.1051 50.8541L45.3491 50.5436C45.539 50.3029 45.7301 50.063 45.9224 49.8238C46.6674 48.8991 47.4319 47.9907 48.216 47.0985C48.8784 46.3464 49.572 45.6254 50.2289 44.8696C50.8615 44.4274 51.4422 43.8326 51.9917 43.3776C52.3984 43.0409 52.8099 42.7088 53.2263 42.3815C56.3147 40.0447 59.6354 38.0244 63.169 36.4409C63.4325 36.3364 63.6968 36.2347 63.962 36.1359C64.3609 35.9877 64.7672 35.8517 65.1728 35.7126C65.2338 35.7065 65.2948 35.701 65.3558 35.6967C65.6095 35.6788 65.8633 35.6646 66.117 35.654C67.0674 35.6132 67.8488 35.593 68.9022 35.3118L68.9437 35.3002C69.1151 35.2636 69.295 35.2228 69.4866 35.1782C69.6421 35.1398 69.7977 35.1002 69.9538 35.063C70.247 34.9922 70.5416 34.9257 70.8377 34.8635C71.2933 34.7665 71.7679 34.7092 72.2254 34.6049C72.8262 34.4896 73.4258 34.3523 74.0132 34.2492L74.048 34.2437C76.2243 34.0378 78.4152 34.0361 80.5919 34.2389C81.6642 34.4121 82.7323 34.5908 83.8315 34.6951L84.3676 34.7445C85.8434 35.0193 87.2953 35.4095 88.7101 35.9114C89.7542 36.4231 90.7611 37.0074 91.7234 37.6602C92.3434 38.2021 92.9312 38.7797 93.4838 39.3901C93.7835 39.8464 94.0616 40.3153 94.3182 40.7968C94.3735 40.9745 94.4258 41.1528 94.475 41.3317L94.3682 41.4342C93.745 41.8293 93.1 42.1892 92.4364 42.512C91.2988 42.9274 90.1386 43.2788 88.9675 43.5868C87.0637 44.0876 85.1313 44.5408 83.1928 44.9013C80.6427 45.1998 78.0842 45.4135 75.5174 45.5424C73.1532 45.6607 70.8816 45.8358 68.524 46.2433C67.8458 46.3598 67.182 46.5487 66.544 46.8069C65.6016 47.1893 64.2182 47.67 63.2087 48.2745C62.8152 48.5099 62.4346 48.7686 62.0643 49.0425C61.128 49.6238 60.0691 50.5381 59.3707 51.4128C58.8577 52.0564 57.9238 53.144 57.3632 54.0565C56.7697 55.0221 56.2043 56.5885 55.9145 57.3547C55.4265 58.6277 55.3491 60.0648 55.2435 61.3945L52.7548 61.325C50.4912 61.264 48.2147 61.1249 45.9499 61.1957C45.4399 61.2116 44.9306 61.2421 44.4249 61.2957C42.9573 61.4494 41.4855 61.6672 40.0258 61.8801C39.7318 61.9228 39.4384 61.971 39.1474 62.0314C38.6825 62.1264 38.2244 62.2522 37.7762 62.4077C36.1341 62.9823 34.478 63.6277 32.9573 64.4768C31.533 65.2697 30.2301 66.4049 29.0156 67.4254C28.7187 67.6789 28.447 67.9606 28.2044 68.2666C27.3083 69.3774 26.0883 70.7278 25.3417 72.1095C24.5664 73.5423 23.9388 75.0721 23.4288 76.6172C22.9104 78.18 22.789 80.2771 22.6438 81.6678C22.5322 82.7347 22.7621 83.7552 22.9055 84.8233C23.0031 85.5485 23.0641 86.5489 23.2812 87.3443C23.6399 88.6558 24.5976 90.5931 24.9105 91.2933L24.916 91.3049C23.744 91.6682 22.6107 92.1461 21.5324 92.7316C20.8376 93.1104 20.21 93.6021 19.5957 94.1059C19.1431 94.4384 18.7088 94.7714 18.5344 94.9599C18.0927 95.5312 17.6513 96.1026 17.2101 96.6739C17.0882 96.8392 16.9766 97.0117 16.8758 97.1906C16.7393 97.4023 16.6143 97.6212 16.5013 97.8463C16.0261 98.8016 15.5564 99.8251 15.2716 100.869C14.9782 101.945 14.8531 103.086 14.7836 104.193C14.7177 105.25 14.9349 106.38 15.0916 107.392C15.1556 107.832 15.266 108.264 15.421 108.681C15.7748 109.604 16.128 110.614 16.6983 111.448C17.2412 112.241 17.839 113.091 18.5691 113.74C19.0491 114.157 19.553 114.546 20.0782 114.905C20.5833 115.38 21.1875 115.736 21.8472 115.949C22.593 116.342 23.4302 116.529 24.2724 116.49C25.7943 116.423 27.5169 115.949 28.5923 114.793L28.6966 114.72C29.0235 114.604 29.3236 114.424 29.5786 114.189C29.8446 113.983 30.0788 113.738 30.274 113.464C30.884 112.932 31.4068 112.326 31.7691 111.573C32.0948 110.897 31.8728 109.893 31.017 109.724C30.852 109.692 30.689 109.65 30.529 109.599C30.5069 109.366 30.4718 109.136 30.4241 108.907C31.6709 109.104 32.9165 109.305 34.1657 109.482C35.5266 109.676 37.0783 110.066 38.3776 110.092C39.0248 110.106 39.6726 110.125 40.3198 110.14C41.5056 110.168 42.6914 110.183 43.8772 110.185C49.5329 110.185 55.1136 109.706 60.7047 108.849C62.8439 108.521 64.98 108.113 67.0656 107.53C69.7769 106.774 72.4175 105.678 74.9203 104.401C75.75 103.978 76.5436 103.489 77.2931 102.937C78.7644 101.849 80.3515 100.732 81.5983 99.3542C82.5224 98.3337 83.3429 97.1998 84.156 96.1006C85.0441 94.9013 85.5223 93.4874 86.064 92.0985C86.43 91.1628 86.6264 90.1386 86.6947 89.1187C87.7622 88.9303 88.8229 88.7052 89.8727 88.4337C92.592 87.731 95.1289 86.6294 97.7061 85.5058C100.019 84.4927 102.168 83.1397 104.082 81.4916C104.412 81.2305 104.737 80.9664 105.054 80.6986C105.254 80.5298 105.452 80.357 105.646 80.1801C106.024 79.8361 106.387 79.477 106.736 79.1029C107.097 78.717 107.442 78.316 107.769 77.9C108.496 76.9765 109.269 76.0402 109.943 75.0764C110.022 74.9643 110.095 74.8481 110.161 74.7281C110.194 74.6671 110.222 74.6061 110.253 74.5451C110.6 73.8522 111.297 72.1473 111.567 71.4342C111.622 71.2877 111.666 71.1372 111.698 70.984C111.82 70.4198 112.125 68.0946 112.16 67.5346C112.163 67.4797 112.171 67.426 112.172 67.3705C112.171 67.2767 112.165 67.183 112.153 67.0899C112.115 66.6721 111.787 64.0711 111.692 63.674C111.683 63.6307 111.676 63.5874 111.664 63.5447C111.651 63.502 111.636 63.4618 111.623 63.4227C111.471 62.939 110.542 60.7785 110.317 60.3234C110.273 60.2338 110.225 60.1467 110.172 60.0624C109.937 59.6964 109.225 58.8125 109.119 58.6905C108.992 58.5136 108.471 57.8109 108.165 57.4529C108.484 57.1954 108.8 56.935 109.113 56.6751C110.539 55.4899 111.648 53.9455 112.725 52.4577C113.028 52.0387 113.299 51.5967 113.534 51.1359C113.642 50.9255 113.739 50.7089 113.833 50.4948C114.299 49.4139 114.813 48.3373 115.183 47.2168C115.354 46.6969 115.481 46.1635 115.562 45.6223C115.777 44.1919 116.053 42.7219 116.06 41.2634C116.069 39.7738 115.781 38.28 115.575 36.8203ZM28.1836 108.153L28.2202 108.174C28.1281 108.153 28.0336 108.135 27.9366 108.12L28.1836 108.153Z" fill="#EDCCFF"/>
<path d="M18.548 37.0654C21.1444 38.5872 24.1003 39.3874 27.1097 39.3833C29.4451 39.4711 31.6236 38.9842 33.645 37.9224C35.7482 37.238 37.568 36.0689 39.1044 34.415C40.7586 32.8783 41.9277 31.0585 42.6117 28.9557C43.6739 26.9342 44.1619 24.7558 44.0757 22.4204L43.47 17.9108C42.6884 15.0801 41.1852 12.5009 39.1074 10.4257L35.6744 7.77355C33.0781 6.25175 30.1222 5.45149 27.1128 5.45562C24.7753 5.36779 22.5963 5.85475 20.5756 6.91652C18.4724 7.60092 16.6526 8.77005 15.1163 10.4239C13.462 11.9602 12.2929 13.78 11.6089 15.8832C10.5467 17.9047 10.0588 20.0831 10.145 22.4185L10.7549 26.9281C11.5365 29.7588 13.0397 32.338 15.1175 34.4132L18.548 37.0654Z" fill="#EDCCFF"/>
<path d="M49.6274 3.41531C49.7281 3.78059 49.9221 4.11337 50.1904 4.3809L50.6333 4.7231C50.9683 4.9193 51.3497 5.02248 51.7379 5.02199C52.3133 4.99797 52.8616 4.77084 53.2854 4.3809C53.4947 4.18927 53.6505 3.94647 53.7374 3.67638C53.8744 3.41724 53.9395 3.12617 53.9259 2.83339C53.9003 2.63941 53.8743 2.44544 53.8478 2.25146C53.7472 1.88632 53.5534 1.5536 53.2854 1.28587L52.8426 0.94367C52.5076 0.747336 52.1262 0.644141 51.7379 0.644778C51.1627 0.66798 50.6143 0.894501 50.1904 1.28404C49.8001 1.70834 49.5729 2.25734 49.5493 2.83339C49.5755 3.02736 49.6012 3.22133 49.6274 3.41531Z" fill="#EDCCFF"/>
<path d="M113.578 97.3803C113.29 96.3382 112.735 95.3897 111.966 94.6294C111.198 93.8692 110.243 93.3238 109.198 93.0477C108.153 92.7716 107.054 92.7745 106.01 93.0561C104.966 93.3377 104.015 93.8881 103.25 94.6524C102.486 95.4167 101.935 96.3682 101.653 97.4118C101.371 98.4554 101.368 99.5547 101.644 100.6C101.92 101.645 102.465 102.6 103.225 103.369C103.985 104.137 104.934 104.693 105.976 104.981L106.558 105.155C108.545 105.747 110.797 105.101 112.247 103.65C113.698 102.2 114.345 99.9484 113.751 97.9604C113.693 97.7677 113.635 97.5743 113.578 97.3803Z" fill="#EDCCFF"/>
<path d="M21.9438 59.7268C21.9524 59.6951 21.9615 59.6658 21.9713 59.6335L7.40312 55.6168C7.40007 55.6296 7.39642 55.6418 7.39337 55.654C7.07703 56.6357 7.03005 57.6844 7.25734 58.6904C7.25599 59.366 7.43543 60.0296 7.77704 60.6125C8.08118 61.5519 8.62385 62.3964 9.35201 63.0634L10.8934 64.2541L12.713 65.022C13.6948 65.3378 14.7433 65.3847 15.7495 65.1581C16.4251 65.1589 17.0886 64.9793 17.6715 64.6377C18.611 64.334 19.4555 63.7915 20.1224 63.0634L21.3131 61.522L22.0811 59.703C22.3968 58.721 22.4438 57.6723 22.2171 56.6659C22.218 55.9905 22.0384 55.3271 21.6968 54.7445C21.393 53.805 20.8505 52.9605 20.1224 52.2936L18.581 51.1023L16.762 50.3349C15.4368 49.972 14.0383 49.972 12.713 50.3349L12.6794 50.341C11.7207 50.562 10.8356 51.028 10.1108 51.6934C9.29207 52.2222 8.62222 52.9517 8.16499 53.8124L7.40374 55.6168C7.09023 56.5909 7.04367 57.6312 7.26893 58.6294C7.26775 59.2994 7.44571 59.9575 7.78436 60.5356C8.08606 61.4674 8.62431 62.3049 9.34652 62.9664L10.877 64.1479C12.0334 64.8253 13.3498 65.1814 14.6899 65.1794C15.3853 65.0879 16.0856 65.0245 16.7755 64.897C18.0106 64.5553 19.1361 63.8995 20.0423 62.9934C20.9485 62.0873 21.6045 60.9619 21.9463 59.7268H21.9438Z" fill="#78E2FF"/>
<path d="M60.1906 49.9536C60.9068 49.9644 61.6092 49.7558 62.2035 49.356C62.7978 48.9562 63.2556 48.3842 63.5156 47.7168C63.7432 47.2854 63.8515 46.8011 63.8291 46.3138L63.6992 45.3464C63.5317 44.7394 63.2092 44.1864 62.7635 43.7416L62.0273 43.1724C61.4703 42.846 60.8362 42.6745 60.1906 42.6759C59.4746 42.6653 58.7725 42.8738 58.1783 43.2735C57.5841 43.6732 57.1263 44.2449 56.8662 44.9121C56.6386 45.3435 56.5303 45.8278 56.5527 46.3151L56.6826 47.2825C56.8503 47.8896 57.1727 48.4428 57.6183 48.888L58.3546 49.4565C58.9114 49.7828 59.5452 49.9544 60.1906 49.9536Z" fill="#78E2FF"/>
<path d="M70.655 12.7761C71.8547 12.7264 72.9978 12.2529 73.8812 11.4396C74.3173 11.0401 74.6423 10.5342 74.8242 9.97137C75.1093 9.43078 75.2451 8.82395 75.2176 8.21341C75.1627 7.8096 75.1082 7.40539 75.0542 7.00077C74.8443 6.23943 74.4401 5.54575 73.8812 4.98784L72.9546 4.27294C72.2571 3.86468 71.4632 3.6501 70.655 3.65137C69.4553 3.701 68.3121 4.17457 67.4288 4.98784C66.9926 5.38735 66.6677 5.89326 66.4858 6.45606C66.2007 6.99645 66.0649 7.60306 66.0923 8.21341L66.2558 9.42666C66.4656 10.188 66.8699 10.8817 67.4288 11.4396L68.3523 12.1533C69.0507 12.5623 69.8456 12.7773 70.655 12.7761Z" fill="#78E2FF"/>
<path d="M123.177 49.8078L123.121 49.7517C122.378 48.9881 121.418 48.4721 120.372 48.274C119.325 48.0758 118.243 48.2053 117.273 48.6446C116.613 48.8584 116.02 49.2399 115.551 49.7517L114.714 50.8344C114.234 51.6536 113.981 52.5863 113.982 53.536C114.046 54.0106 114.11 54.4849 114.174 54.9591C114.42 55.8524 114.895 56.6662 115.551 57.3209L115.607 57.3777C116.349 58.1415 117.309 58.6576 118.355 58.8556C119.402 59.0536 120.484 58.9239 121.454 58.4842C122.114 58.2702 122.708 57.889 123.177 57.3777L124.014 56.2943C124.494 55.475 124.746 54.5424 124.746 53.5927C124.681 53.1182 124.617 52.6438 124.554 52.1697C124.307 51.2765 123.833 50.4627 123.178 49.8078H123.177Z" fill="#78E2FF"/>
<path d="M107.024 79.9963C107.76 79.9763 108.46 79.6751 108.981 79.1545C109.502 78.6339 109.803 77.9337 109.823 77.1978C109.79 76.9497 109.756 76.7016 109.723 76.4536C109.594 75.9867 109.346 75.5613 109.003 75.219L108.436 74.781C108.008 74.5302 107.521 74.3984 107.024 74.3992C106.288 74.419 105.588 74.7202 105.067 75.2408C104.546 75.7614 104.245 76.4617 104.225 77.1978C104.259 77.4458 104.292 77.6939 104.325 77.9419C104.454 78.4088 104.702 78.8342 105.045 79.1765L105.612 79.6145C106.04 79.8657 106.528 79.9975 107.024 79.9963Z" fill="#78E2FF"/>
<path d="M18.7883 116.587C18.8207 116.461 18.8536 116.335 18.8853 116.208C19.0143 115.71 19.0843 115.198 19.0939 114.683C19.0323 113.204 18.4489 111.795 17.447 110.705C17.4206 110.668 17.3894 110.636 17.3543 110.608C16.6654 109.92 15.8081 109.424 14.8678 109.17C13.9276 108.917 12.9372 108.914 11.9956 109.163C11.054 109.411 10.194 109.902 9.5015 110.587C8.80901 111.272 8.3082 112.126 8.04904 113.065C7.88861 114.236 7.66414 115.012 8.04171 116.18L8.609 117.522C9.09808 118.356 9.79302 119.051 10.6274 119.541L10.9507 119.774C11.7675 120.253 12.6972 120.504 13.6438 120.503C14.3579 120.535 15.0677 120.376 15.7 120.043C16.3582 119.83 16.9499 119.45 17.4171 118.94C18.0709 118.287 18.5439 117.475 18.7896 116.585L18.7883 116.587Z" fill="#78E2FF"/>
<path d="M115.848 126.7C116.644 126.69 117.405 126.375 117.975 125.819C118.511 125.236 118.823 124.483 118.856 123.692C118.821 122.913 118.566 122.106 117.975 121.564C117.385 121.023 116.663 120.683 115.848 120.683C115.052 120.693 114.29 121.009 113.72 121.564C113.184 122.147 112.872 122.901 112.839 123.692C112.874 124.469 113.13 125.278 113.72 125.819C114.311 126.36 115.033 126.7 115.848 126.7Z" fill="#78E2FF"/>
<path d="M4.19497 22.6985C4.66765 22.7198 5.13745 22.6145 5.55584 22.3935C5.98296 22.2345 6.37084 21.9853 6.69313 21.6631C7.01541 21.3408 7.26454 20.9529 7.4236 20.5258C7.64458 20.1072 7.74987 19.6372 7.72859 19.1643L7.60232 18.2249C7.43941 17.6355 7.12648 17.0983 6.69406 16.6658C6.00234 16.0314 5.15264 15.6289 4.19314 15.6289C3.72029 15.6078 3.25036 15.7131 2.83167 15.9338C2.40468 16.0931 2.01693 16.3424 1.69468 16.6646C1.37243 16.9869 1.12321 17.3746 0.96391 17.8016C0.743007 18.2202 0.637727 18.6902 0.65892 19.1631L0.785186 20.1024C0.947959 20.6921 1.26115 21.2294 1.69406 21.6616C2.38516 22.2959 3.23486 22.6985 4.19497 22.6985Z" fill="#78E2FF"/>
<path d="M58.4483 165.094C77.7002 165.094 93.3069 161.396 93.3069 156.834C93.3069 152.272 77.7002 148.573 58.4483 148.573C39.1965 148.573 23.5898 152.272 23.5898 156.834C23.5898 161.396 39.1965 165.094 58.4483 165.094Z" fill="#79A1BF"/>
<path d="M93.9219 67.5064C94.1954 68.1204 94.4374 68.7478 94.6472 69.3864C96.7754 75.8753 95.0303 81.3786 94.5752 82.9554C89.9833 71.0553 82.4012 62.3795 69.9796 60.577C48.318 57.4326 35.4316 74.7414 35.4316 74.7414C35.4316 74.7414 34.2116 77.5522 32.6934 82.066C30.7207 80.2525 30.0906 77.1142 31.4124 72.9163C32.0523 70.8839 33.1503 68.6032 34.7752 66.1047C39.785 58.4 53.6383 49.5559 68.2522 51.6286C81.7906 53.5489 90.4664 59.7383 93.9219 67.5064Z" fill="#FFE7CA"/>
<path d="M62.6709 34.7665C58.5901 34.5548 54.5393 35.2911 50.8056 37.0155C47.9631 38.3275 45.4378 40.2014 43.2254 42.4132C42.3223 41.084 41.7298 39.5685 41.492 37.9792C41.2541 36.3899 41.377 34.7675 41.8514 33.2321C42.3258 31.6967 43.1396 30.2878 44.2325 29.1096C45.3255 27.9315 46.6695 27.0144 48.165 26.4263C49.6605 25.8382 51.2692 25.5942 52.8719 25.7123C54.4745 25.8304 56.0301 26.3077 57.4232 27.1087C58.8164 27.9096 60.0114 29.0139 60.9199 30.3395C61.8283 31.6651 62.4267 33.1781 62.6709 34.7665Z" fill="#FFE7CA"/>
<path d="M62.671 34.7663C76.3955 35.477 90.4543 46.9013 93.9221 67.5064C90.4665 59.7383 81.7908 53.5488 68.2523 51.6286C53.6384 49.5547 39.7851 58.3994 34.7754 66.1047C33.1504 68.6056 32.0524 70.8839 31.4126 72.9163C29.0696 71.4017 32.602 53.0206 43.2254 42.4131C45.4403 40.2013 47.9631 38.3262 50.8056 37.0153C54.5393 35.2909 58.5902 34.5547 62.671 34.7663Z" fill="#FFBA5F"/>
<path d="M94.5753 82.9554C97.9912 91.8086 99.7547 102.445 100.624 113.366C102.662 138.966 93.2303 142.076 86.9427 138.966C80.655 135.856 80.4397 142.123 73.7458 144.01C64.7974 146.532 63.6921 140.728 57.4044 138.828C51.1167 136.928 48.9397 144.183 41.2357 143.215C33.5316 142.247 28.0388 136.479 26.9329 116.681C26.221 103.937 29.948 90.2202 32.6935 82.0642C34.213 77.5503 35.4317 74.7396 35.4317 74.7396C35.4317 74.7396 48.3182 57.4308 69.9798 60.5752C82.4014 62.3795 89.9834 71.0553 94.5753 82.9554ZM86.7011 81.3743C86.7011 76.417 83.3676 72.3978 79.2557 72.3978C75.1438 72.3978 71.814 76.417 71.814 81.3743C71.814 86.3316 75.1475 90.3514 79.2557 90.3514C83.3639 90.3514 86.7011 86.3322 86.7011 81.3743ZM60.8246 83.0676C60.8246 77.801 56.8646 73.5318 51.9799 73.5318C47.0951 73.5318 43.1352 77.8016 43.1352 83.0676C43.1352 88.3336 47.0945 92.6028 51.9799 92.6028C56.8652 92.6028 60.8246 88.3336 60.8246 83.0676Z" fill="#F7F7F7"/>
<path d="M79.2557 72.3979C83.3676 72.3979 86.7011 76.4171 86.7011 81.3744C86.7011 86.3317 83.3676 90.3515 79.2557 90.3515C75.1438 90.3515 71.814 86.3323 71.814 81.3744C71.814 76.4165 75.1445 72.3979 79.2557 72.3979Z" fill="black"/>
<path d="M51.9804 73.5317C56.8646 73.5317 60.8252 77.8016 60.8252 83.0675C60.8252 88.3335 56.8652 92.6027 51.9804 92.6027C47.0957 92.6027 43.1357 88.3329 43.1357 83.0675C43.1357 77.8022 47.0957 73.5317 51.9804 73.5317Z" fill="black"/>
<path d="M52.9518 83.3269C55.4946 83.3269 57.5559 81.2656 57.5559 78.7228C57.5559 76.18 55.4946 74.1187 52.9518 74.1187C50.409 74.1187 48.3477 76.18 48.3477 78.7228C48.3477 81.2656 50.409 83.3269 52.9518 83.3269Z" fill="white"/>
<path d="M45.6285 86.0462C46.91 86.0462 47.9488 85.0074 47.9488 83.7259C47.9488 82.4444 46.91 81.4055 45.6285 81.4055C44.347 81.4055 43.3081 82.4444 43.3081 83.7259C43.3081 85.0074 44.347 86.0462 45.6285 86.0462Z" fill="white"/>
<path d="M58.4987 84.3785C59.2196 84.3785 59.8041 83.7941 59.8041 83.0732C59.8041 82.3523 59.2196 81.7678 58.4987 81.7678C57.7778 81.7678 57.1934 82.3523 57.1934 83.0732C57.1934 83.7941 57.7778 84.3785 58.4987 84.3785Z" fill="white"/>
<path d="M80.3383 81.3706C82.5411 81.3706 84.3269 79.5848 84.3269 77.382C84.3269 75.1791 82.5411 73.3933 80.3383 73.3933C78.1354 73.3933 76.3496 75.1791 76.3496 77.382C76.3496 79.5848 78.1354 81.3706 80.3383 81.3706Z" fill="white"/>
<path d="M73.9943 83.7258C75.1043 83.7258 76.0041 82.826 76.0041 81.7159C76.0041 80.6059 75.1043 79.7061 73.9943 79.7061C72.8842 79.7061 71.9844 80.6059 71.9844 81.7159C71.9844 82.826 72.8842 83.7258 73.9943 83.7258Z" fill="white"/>
<path d="M85.9421 81.9496C86.3836 81.5082 86.3836 80.7926 85.9421 80.3511C85.5007 79.9097 84.7851 79.9097 84.3437 80.3512C83.9023 80.7926 83.9023 81.5082 84.3437 81.9496C84.7851 82.391 85.5007 82.391 85.9421 81.9496Z" fill="white"/>
<path d="M79.1992 63.1694C83.9485 67.4478 91.5617 78.3238 93.7009 102.722C95.8401 127.121 87.1027 131.399 79.3444 135.206C71.5861 139.012 71.9124 144.56 66.8008 141.623C61.6892 138.686 58.6069 133.103 53.3141 135.061C48.0214 137.019 46.8612 139.846 41.4195 140.825C35.9779 141.804 31.1963 137.018 31.1963 137.018C31.1963 137.018 35.9816 144.161 41.7489 143.472C47.5163 142.783 50.3411 138.36 54.2932 138.36C58.2452 138.36 61.7252 141.296 63.8638 142.456C66.0023 143.617 69.1572 144.922 71.4409 144.922C73.7247 144.922 81.1933 137.345 83.1525 137.852C85.1118 138.36 90.3674 141.26 92.035 139.81C93.7027 138.36 98.1257 139.846 99.6122 129.624C101.099 119.401 99.467 100.911 97.3278 92.1709C95.1886 83.4311 93.8113 79.6663 92.6877 77.8504C91.5641 76.0345 85.6181 68.9319 85.6181 68.9319L79.1992 63.1694Z" fill="#C6BDB3"/>
<path d="M45.0849 96.4507C50.571 96.4507 55.0184 95.3632 55.0184 94.0217C55.0184 92.6802 50.571 91.5928 45.0849 91.5928C39.5988 91.5928 35.1514 92.6802 35.1514 94.0217C35.1514 95.3632 39.5988 96.4507 45.0849 96.4507Z" fill="#EF547D"/>
<path d="M86.3777 94.6415C91.4633 94.6415 95.5859 93.6335 95.5859 92.3901C95.5859 91.1467 91.4633 90.1387 86.3777 90.1387C81.2921 90.1387 77.1694 91.1467 77.1694 92.3901C77.1694 93.6335 81.2921 94.6415 86.3777 94.6415Z" fill="#EF547D"/>
<path d="M42.9121 94.0303H42.9896C43.3958 94.0455 43.2799 93.3374 42.856 93.538C42.6571 93.632 42.49 93.7698 42.3101 93.8991C42.0423 94.0937 41.7532 94.3145 41.7904 94.6921C41.8251 95.0441 42.0953 95.2765 42.4577 95.2002C42.82 95.124 42.9609 94.8013 43.0677 94.4823C43.1372 94.2694 43.2171 94.062 43.247 93.8394L42.8584 93.9973C42.8731 94.0083 42.8926 94.0297 42.9146 94.0309L42.9121 94.0303Z" fill="#FFC7D8"/>
<path d="M45.7294 93.5495C45.3244 93.8228 44.8553 94.0985 44.5741 94.5047C44.2783 94.9317 44.959 95.4654 45.3 95.0653C45.6215 94.6883 45.7679 94.165 45.9289 93.7026C45.9353 93.6767 45.934 93.6495 45.9252 93.6243C45.9164 93.5991 45.9004 93.5771 45.8792 93.5608C45.8581 93.5446 45.8326 93.5349 45.806 93.5329C45.7794 93.5308 45.7528 93.5366 45.7294 93.5495Z" fill="#FFC7D8"/>
<path d="M48.0788 93.3189C47.9426 93.4243 47.8122 93.5371 47.6884 93.6568C47.5493 93.7996 47.3718 93.8721 47.2797 94.06C47.1577 94.304 47.2145 94.6017 47.4627 94.745C47.6884 94.8768 48.0221 94.806 48.1477 94.562C48.2176 94.4476 48.2516 94.3148 48.2453 94.1808C48.2388 94.1019 48.2427 94.0226 48.2569 93.9447C48.2813 93.7665 48.2966 93.5871 48.3027 93.4073C48.3094 93.2853 48.1611 93.2506 48.0818 93.3158L48.0788 93.3189Z" fill="#FFC7D8"/>
<path d="M85.9121 91.4836C85.6742 91.5068 85.5089 91.5654 85.3393 91.7435C85.1478 91.9448 85.0239 92.1772 85.0343 92.459C85.0364 92.551 85.0675 92.64 85.1233 92.7132C85.1791 92.7864 85.2566 92.84 85.3448 92.8664C85.3991 92.8818 85.456 92.886 85.512 92.8788C85.5679 92.8716 85.6219 92.853 85.6705 92.8244C85.8053 92.7597 85.8748 92.5993 85.8797 92.4584C85.8846 92.3327 85.8669 92.2016 85.8968 92.0668C85.9231 91.9338 85.9666 91.8048 86.0261 91.6831C86.0707 91.6013 86.0164 91.4714 85.9102 91.4818L85.9121 91.4836Z" fill="#FFC7D8"/>
<path d="M87.3922 91.7227C87.4074 91.9111 87.3312 92.0435 87.258 92.2106C87.1848 92.3778 87.197 92.5437 87.3464 92.6535C87.4684 92.7456 87.6911 92.7633 87.7972 92.6266C87.9093 92.4817 87.9725 92.3049 87.9777 92.1217C87.9828 91.9385 87.9297 91.7584 87.8259 91.6074C87.71 91.4244 87.3726 91.4805 87.3922 91.7245V91.7227Z" fill="#FFC7D8"/>
<path d="M88.7066 91.8496C88.5846 91.871 88.5278 91.985 88.4845 92.0936C88.429 92.2296 88.3534 92.3693 88.3516 92.5206C88.3516 92.8018 88.7291 92.8256 88.8188 92.5816C88.8719 92.4382 88.856 92.2211 88.8334 92.0704C88.8261 92.0216 88.7926 91.8374 88.7066 91.8533V91.8496Z" fill="#FFC7D8"/>
<path d="M47.8037 26.1182C50.2326 26.2274 54.8008 27.2772 55.7072 30.4326C56.6136 33.5881 56.4685 34.4933 56.4685 34.4933L62.4139 34.2755C62.4139 34.2755 62.231 31.9191 60.4565 29.8525C58.6821 27.7859 55.6377 25.2484 53.7467 24.9221C51.8558 24.5957 47.8037 26.1182 47.8037 26.1182Z" fill="#D6AC7F"/>
<path d="M75.8281 53.2727C78.3656 54.3603 81.4113 56.6441 83.079 60.9584C84.7466 65.2728 82.8612 65.1636 82.8612 65.1636C82.8612 65.1636 87.5019 68.3178 89.022 71.7258C90.542 75.1338 94.061 83.3996 94.3898 82.9647C94.7186 82.5298 97.1817 71.6191 92.4324 64.2572C87.6831 56.8954 79.8881 54.034 79.4532 54.2535C79.0183 54.4731 75.8281 53.2727 75.8281 53.2727Z" fill="#D6AC7F"/>
<path d="M57.1572 34.9281C61.2179 34.7103 75.4292 41.4177 81.1209 55.4844C81.1209 55.4844 81.8821 54.2156 86.5955 58.0951C91.3088 61.9746 93.6285 65.4905 93.6285 65.4905C93.6285 65.4905 88.0094 49.3212 80.8671 43.0493C73.7249 36.7775 66.4716 35.4722 65.6042 35.1465C64.7368 34.8207 57.1572 34.9281 57.1572 34.9281Z" fill="#D1780F"/>
<path d="M55.381 36.0156C51.7553 36.5591 42.5104 40.7283 40.9855 43.5928C39.4605 46.4573 34.3873 54.1454 33.5175 57.4393C32.6477 60.7332 30.7622 67.9188 30.7622 69.2241C30.7622 70.5295 30.9794 72.6321 30.9794 72.6321C30.9794 72.6321 39.6807 60.7375 39.5715 60.4142C39.4623 60.0909 36.9254 58.5653 41.2032 49.1033C45.481 39.6413 55.381 36.0156 55.381 36.0156Z" fill="#FFD7AB"/>
<path d="M42.8082 51.5928C43.0199 50.2883 42.1341 49.0591 40.8295 48.8473C39.525 48.6356 38.2958 49.5214 38.0841 50.826C37.8723 52.1305 38.7582 53.3596 40.0627 53.5714C41.3672 53.7832 42.5964 52.8973 42.8082 51.5928Z" fill="#FFD7AB"/>
<path d="M47.8246 52.8587C48.3768 52.3065 48.3768 51.4113 47.8246 50.8591C47.2724 50.3069 46.3772 50.3069 45.825 50.8591C45.2728 51.4113 45.2728 52.3065 45.825 52.8587C46.3772 53.4109 47.2724 53.4109 47.8246 52.8587Z" fill="#FFD7AB"/>
<path d="M48.3473 26.6624C46.8223 28.2215 44.6136 31.9917 44.5044 34.4933C44.3952 36.9948 45.592 39.0974 45.592 39.0974L42.8733 41.2C42.8733 41.2 40.8793 37.029 41.6405 34.0577C42.4018 31.0865 45.7012 27.7859 45.7012 27.7859L48.3473 26.6624Z" fill="#FFF7EE"/>
<path d="M51.8675 54.1424C51.1056 54.0338 36.7491 62.8041 36.0605 67.9889C35.3718 73.1737 34.9369 74.4419 34.9369 75.1311C34.9369 75.8204 32.2176 81.7293 32.2176 81.7293C32.2176 81.7293 31.0586 78.3213 31.8553 73.7172C32.6519 69.1131 35.5896 65.9223 37.8007 63.0584C40.0119 60.1946 51.8675 54.1424 51.8675 54.1424Z" fill="#FFF7EE"/>
<path d="M101.347 113.309C100.787 106.277 99.9309 100.16 98.7305 94.6066C97.8069 90.3367 96.6712 86.4261 95.339 82.9279C95.8837 81.0571 97.441 75.5776 95.3359 69.1606C95.1297 68.5324 94.8894 67.9059 94.6216 67.2965C92.9594 57.5186 88.8201 49.1728 82.6477 43.1566C77.1512 37.7992 70.295 34.5888 63.2833 34.0789C62.9454 32.4482 62.2554 30.911 61.2615 29.5747C60.2676 28.2384 58.9939 27.1353 57.5293 26.3425C56.0648 25.5498 54.4448 25.0864 52.7825 24.9849C51.1203 24.8834 49.4559 25.1461 47.9057 25.7548C46.3556 26.3634 44.9571 27.3033 43.808 28.5087C42.6589 29.7141 41.7869 31.1559 41.253 32.7334C40.7192 34.3108 40.5362 35.9858 40.7171 37.6414C40.8979 39.2969 41.4382 40.8929 42.3 42.3179C40.2822 44.4052 38.4151 46.8775 36.7449 49.6742C35.1501 52.3606 33.7993 55.1845 32.7087 58.1121C31.7327 60.7191 30.9672 63.3738 30.4994 65.7887C30.0583 68.0639 29.9016 69.9896 30.0461 71.356C30.1285 72.1355 30.309 72.7168 30.5951 73.1139C29.4746 76.98 29.9241 80.1958 31.8633 82.2636C31.2856 83.9972 30.6714 85.9601 30.0693 88.0914C28.7475 92.7711 27.741 97.3387 27.0804 101.668C26.249 107.092 25.9562 112.16 26.2112 116.723C26.7431 126.245 28.3077 133.005 30.994 137.389C32.25 139.438 33.7341 140.967 35.5311 142.064C37.1481 143.052 38.9854 143.664 41.1478 143.935C45.2529 144.45 47.8984 142.772 50.2322 141.29C52.4507 139.882 54.3666 138.667 57.1969 139.521C59.302 140.157 60.8166 141.273 62.2811 142.352C63.6517 143.362 65.0693 144.406 66.8822 144.953C67.8079 145.23 68.7696 145.367 69.7357 145.362C71.0099 145.362 72.3946 145.145 73.9445 144.707C76.8395 143.892 78.617 142.28 80.0443 140.986C82.1018 139.121 83.3431 137.997 86.6236 139.618C88.0314 140.314 89.5259 140.681 90.9459 140.681C92.5388 140.691 94.0967 140.213 95.4109 139.313C98.875 136.964 102.719 130.545 101.347 113.309ZM52.0841 26.4084C56.0441 26.4084 59.5588 28.7727 61.1557 32.2258C61.2439 32.4152 61.2841 32.6234 61.2728 32.8321C61.2616 33.0408 61.1992 33.2435 61.0911 33.4223C60.9831 33.6012 60.8327 33.7507 60.6532 33.8578C60.4738 33.9648 60.2707 34.0261 60.062 34.0362C58.8579 34.0916 57.659 34.2306 56.4741 34.4522C54.4125 34.8391 52.4065 35.4791 50.5018 36.3578C48.459 37.3014 46.4936 38.5671 44.6356 40.1335C44.4771 40.2668 44.2884 40.3593 44.086 40.4029C43.8836 40.4466 43.6736 40.4402 43.4742 40.3842C43.2748 40.3283 43.0921 40.2244 42.942 40.0818C42.7919 39.9391 42.679 39.7619 42.6129 39.5657C42.2716 38.543 42.0981 37.4719 42.0993 36.3938C42.0993 30.8875 46.5784 26.4084 52.0841 26.4084ZM43.6084 43.056C43.6218 43.048 43.6353 43.0401 43.6481 43.031C43.7346 42.972 43.8071 42.8947 43.8603 42.8046C46.1112 40.5819 48.5493 38.8556 51.1093 37.6735C54.5966 36.0632 58.3522 35.3245 62.2775 35.4745C62.3871 35.5504 62.5156 35.5943 62.6487 35.6014C62.7818 35.6085 62.9143 35.5785 63.0314 35.5148C74.2026 36.2681 86.6071 44.4473 91.687 61.1229C91.8291 61.589 91.2369 61.9159 90.9142 61.5536L90.8995 61.5371C89.3252 59.7633 87.4281 58.1578 85.2603 56.7646C80.6799 53.8221 74.9919 51.8525 68.3541 50.9088C64.8016 50.405 61.1246 50.5093 57.4245 51.2187C54.0125 51.8831 50.7053 53.0028 47.5916 54.548C44.7268 55.951 42.0424 57.6959 39.5972 59.7444C37.3506 61.6353 35.4731 63.6989 34.1684 65.7076C33.5047 66.7283 32.9177 67.7284 32.4074 68.708C32.1756 69.1521 31.5015 68.949 31.5534 68.4506C32.236 62.1721 36.1411 50.6002 43.6084 43.056ZM32.0975 73.156C32.1036 73.1383 32.1097 73.1206 32.1146 73.1023C32.7605 71.0626 33.8603 68.8416 35.3835 66.4999C37.9698 62.521 42.7734 58.5403 48.2327 55.8503C52.7831 53.6086 59.9321 51.1809 68.1503 52.3466C80.5116 54.0996 89.6607 59.7273 93.2541 67.7882C93.2541 67.7882 93.2541 67.7925 93.2541 67.7949L93.2577 67.8034C93.5208 68.3943 93.7537 68.9982 93.9555 69.6126C94.9864 72.7553 95.0736 75.6679 94.8498 77.9816C94.7711 78.7922 93.6786 78.9868 93.3212 78.2554C93.3169 78.2475 93.3132 78.2396 93.3096 78.2317C92.0896 75.7405 90.7202 73.4677 89.2361 71.478C87.674 69.3821 85.9392 67.5369 84.0806 65.9936C82.1531 64.3893 80.0145 63.0572 77.7246 62.0349C75.2884 60.9634 72.7168 60.2313 70.0815 59.8591C65.0401 59.1271 60.0492 59.4321 55.2468 60.7649C51.4095 61.8299 47.6831 63.5494 44.1794 65.8759C41.6853 67.5351 39.3681 69.4458 37.264 71.578C35.7007 73.1682 34.8851 74.2619 34.8479 74.3083C34.8145 74.353 34.7864 74.4015 34.7643 74.4528C34.7515 74.4821 34.083 76.0327 33.1259 78.644C32.8441 79.4138 31.7291 79.3211 31.5754 78.5165C31.2899 77.0093 31.4595 75.1915 32.0975 73.156ZM99.0385 130.651C98.0948 134.243 96.5986 136.751 94.5954 138.112C91.7523 140.038 88.7817 139.067 87.2641 138.316C85.3731 137.38 83.8268 137.16 82.405 137.624C81.135 138.038 80.131 138.948 79.0684 139.911C77.6843 141.166 76.1155 142.589 73.5487 143.312C68.1076 144.846 65.8019 143.149 63.1388 141.185C61.5754 140.034 59.9583 138.842 57.6142 138.135C56.8832 137.908 56.1226 137.791 55.3572 137.787C54.5812 137.789 53.8105 137.915 53.0747 138.162C51.7791 138.589 50.6482 139.308 49.4508 140.067C47.4989 141.305 45.4914 142.58 42.619 142.58C42.1861 142.58 41.7536 142.552 41.3241 142.497C37.2567 141.987 34.3654 140.123 32.2262 136.632C29.6686 132.458 28.1729 125.92 27.655 116.643C27.0902 106.525 29.4112 95.7588 31.4576 88.5092C32.0676 86.3413 32.6941 84.351 33.2778 82.6022L33.2839 82.5967C33.3505 82.5227 33.4012 82.4357 33.4326 82.3413C33.4641 82.2468 33.4758 82.1469 33.4669 82.0477C34.7839 78.1639 35.8605 75.588 36.0636 75.1098C36.4906 74.5608 39.6466 70.6161 45.0303 67.0581C50.3274 63.5537 58.9378 59.7096 69.8784 61.2974C79.6832 62.7205 86.9231 68.4689 92.0121 78.8721C92.677 80.2304 93.3016 81.6638 93.886 83.1725C93.8957 83.2026 93.9071 83.2321 93.9202 83.2609C96.9524 91.1193 98.9183 101.049 99.9041 113.427C100.466 120.523 100.178 126.319 99.0385 130.651Z" fill="#350E00"/>
<path d="M58.7655 75.832C56.9563 73.8801 54.5463 72.8071 51.9801 72.8071C49.4139 72.8071 47.0039 73.8813 45.1947 75.832C43.3995 77.7675 42.4126 80.3373 42.4126 83.0676C42.4126 85.7979 43.4014 88.3677 45.1965 90.3032C47.0057 92.2551 49.4152 93.3281 51.982 93.3281C54.5488 93.3281 56.9582 92.2533 58.7674 90.3032C60.5625 88.3677 61.5513 85.7979 61.5513 83.0676C61.5513 80.3373 60.5607 77.7675 58.7655 75.832ZM51.9801 91.8745C47.5029 91.8745 43.8607 87.9224 43.8607 83.0645C43.8607 78.2067 47.5029 74.254 51.9801 74.254C56.4574 74.254 60.099 78.2067 60.099 83.0645C60.099 87.9224 56.4568 91.8775 51.9801 91.8775V91.8745Z" fill="#350E00"/>
<path d="M79.2555 71.6758C77.0474 71.6758 74.9796 72.7024 73.4333 74.5671C71.9193 76.3921 71.0854 78.8107 71.0854 81.3775C71.0854 83.9443 71.9193 86.3623 73.4333 88.1873C74.9796 90.052 77.0474 91.0786 79.2555 91.0786C81.4636 91.0786 83.5321 90.052 85.0784 88.1873C86.5923 86.3623 87.4262 83.9437 87.4262 81.3775C87.4262 78.8113 86.5923 76.3921 85.0784 74.5671C83.5321 72.6999 81.4642 71.6758 79.2555 71.6758ZM79.2555 89.6287C75.5505 89.6287 72.536 85.9273 72.536 81.3775C72.536 76.8277 75.5505 73.1257 79.2555 73.1257C82.9605 73.1257 85.9757 76.8271 85.9757 81.3775C85.9757 85.928 82.9611 89.6263 79.2555 89.6263V89.6287Z" fill="#350E00"/>
<path d="M67.646 92.2368C63.9513 92.0642 60.8752 96.4957 60.7447 96.6842C60.6412 96.8429 60.6039 97.0358 60.6409 97.2216C60.6778 97.4074 60.7859 97.5714 60.9422 97.6785C61.0985 97.7856 61.2904 97.8273 61.4771 97.7947C61.6637 97.7621 61.8301 97.6578 61.9408 97.504C61.9677 97.4644 64.6943 93.5483 67.5819 93.6855C68.9849 93.7514 70.2622 94.8079 71.3845 96.8245C71.479 96.9908 71.6353 97.113 71.8194 97.1646C72.0035 97.2162 72.2006 97.1929 72.3677 97.1C72.5348 97.007 72.6584 96.8519 72.7117 96.6682C72.7649 96.4846 72.7435 96.2873 72.6521 96.1194C71.268 93.6349 69.5839 92.3265 67.646 92.2368Z" fill="#350E00"/>
</g>
<defs>
<clipPath id="clip0_31_35171">
<rect width="124.085" height="164.451" fill="white" transform="translate(0.659668 0.643555)"/>
</clipPath>
</defs>
</svg>
