<svg width="191" height="113" viewBox="0 0 191 113" fill="none" xmlns="http://www.w3.org/2000/svg">
<path d="M186.261 78.2222C188.141 75.0421 187.442 71.4959 185.715 68.2775C182.163 61.7205 175.568 59.6277 170.175 62.8133C166.995 46.2843 145.996 48.6448 137.707 54.5242C136.368 55.4695 134.199 58.9666 132.888 59.5021C132.057 59.8354 131.248 59.2288 130.259 59.2124C129.242 59.1884 128.23 59.3744 127.287 59.7589C122.942 57.2863 118.462 55.0607 113.867 53.0926C101.633 47.6722 89.2783 44.3117 76.3884 43.3063C70.2187 42.7795 64.0079 43.0033 57.8922 43.9729C55.1601 44.4155 51.6303 44.5193 49.2151 46.6067L24.4298 55.0105C22.1567 54.3821 20.0257 57.7426 19.1733 60.2561C14.3047 58.1688 8.29961 62.3871 7.49091 69.3266C7.49091 69.1955 3.01032 71.6325 2.54586 72.168C1.39293 73.4903 0.786397 74.441 0.862895 76.4518C0.862895 77.0693 1.85737 77.9162 2.02129 78.6375C2.26718 79.7303 2.13603 81.1128 2.31634 82.2602C2.65512 84.4459 3.20154 86.9812 4.57851 88.4347C8.40341 92.4454 14.1134 91.7132 18.6104 92.3034C18.3755 101.516 33.7133 104.68 37.7623 99.8985C36.6367 102.794 38.7131 104.691 40.4124 105.909C44.7837 109.073 50.6631 108.674 55.1164 106.122C56.7557 105.188 57.8868 102.844 59.1654 102.412C60.5697 101.915 63.8099 103.598 65.4327 103.767C65.6185 107.149 68.3834 107.98 70.5035 108.084C71.5034 108.133 73.4432 106.991 74.2409 107.199C75.2136 107.428 76.0332 108.57 77.055 109.264C84.0109 113.996 100.802 113.81 103.447 101.33C108.113 107.024 116.304 106.516 121.233 102.336C122.402 105.308 124.566 106.483 126.872 107.177C129.287 107.909 131.319 106.445 133.429 106.707C135.319 106.942 137.374 110.231 139.751 110.532C142.74 110.942 145.16 109.39 146.898 106.767C148.318 107.231 149.75 107.002 150.368 105.035C154.739 107.805 162.274 106.27 160.334 97.538C165.055 99.0516 170.984 101.133 175.787 99.4941C179.109 98.3576 179.338 95.0354 181.442 92.5164C183.469 90.0903 186.786 90.7952 188.851 88.0959C192.676 83.058 188.731 80.9926 185.95 78.6539C186.059 78.5446 186.163 78.3862 186.261 78.2222Z" fill="#3B2519"/>
<path d="M87.781 110.034C83.9561 110.034 80.1858 109.051 77.7598 107.401C77.4394 107.17 77.1363 106.916 76.8527 106.641C74.9457 104.909 73.1863 104.811 71.0553 104.035C69.7876 103.57 67.2959 102.434 68.6292 100.122C66.3452 101.614 62.0176 101.8 60.6351 98.1936C58.7008 100.576 55.2202 103.734 52.5373 104.204C50.7778 104.51 49.3899 103.111 47.8326 102.975C46.7671 102.865 46.2808 103.844 45.1934 104.242C41.1718 105.718 38.8441 100.931 39.6091 96.1445C38.4397 96.4123 37.3633 97.445 36.265 98.057C32.2106 100.341 25.4897 101.461 22.0582 96.467C20.7905 94.6091 20.9654 89.7187 21.9653 87.7735C20.8354 88.2826 19.6747 88.7206 18.4901 89.0849C14.403 90.1067 9.02078 90.4782 5.51826 86.7845C3.03754 84.1617 4.02107 80.7739 5.77506 78.315C5.32153 78.9543 4.04838 77.1894 3.96096 76.6211C3.79157 75.5611 4.50739 74.4683 4.97184 73.747C6.34881 71.6215 8.99893 71.8564 10.7802 72.7198C10.7802 70.086 11.3267 69.4412 12.9659 68.1954C11.2338 67.7474 12.0479 65.5563 12.8019 64.3214C15.1187 60.4965 18.0585 62.0155 20.0529 65.3322C21.326 61.256 23.4516 57.7425 26.6481 56.4693C29.6042 55.2946 32.6587 54.4203 35.6366 53.404L49.5538 48.6884C49.7244 48.6273 49.882 48.5346 50.0183 48.4152C51.6958 46.9672 54.253 46.623 56.5097 46.317C57.0561 46.2459 57.5424 46.1804 58.0397 46.0984C61.8677 45.4771 65.7401 45.17 69.6182 45.1804C71.7547 45.1804 73.9895 45.2679 76.2571 45.4482C88.6881 46.4153 100.846 49.5845 113.331 55.1307C117.874 57.0812 122.3 59.2924 126.587 61.7532C126.777 61.8683 126.994 61.9288 127.216 61.9281C127.374 61.9295 127.53 61.8978 127.675 61.8351C128.429 61.5201 129.239 61.3585 130.057 61.3598H130.166C130.453 61.3813 130.735 61.4382 131.008 61.5292C131.42 61.6619 131.848 61.7373 132.281 61.7532C132.62 61.7537 132.956 61.6887 133.27 61.5619C134.336 61.1248 135.417 59.808 136.549 58.4146C137.089 57.6977 137.695 57.0319 138.357 56.4257C141.925 53.8958 147.646 52.262 152.963 52.262C156.93 52.262 160.427 53.1635 163.072 54.8738C164.662 55.9011 166.514 57.5567 167.405 59.6932C167.694 60.3817 168.197 67.7528 167.159 67.1135C167.809 67.5124 169.219 67.7037 169.241 68.8129C170.88 67.5233 172.716 65.7639 174.584 67.0753C176.53 61.1576 182.6 66.3103 184.365 69.556C185.365 71.3974 186.201 73.7798 185.409 76.0146C184.863 77.55 182.475 80.0636 181.218 80.0253C183.169 80.0854 190.671 82.4514 187.474 86.8336C186.414 88.2816 184.496 88.522 183.191 89.2378C182.644 89.5493 178.874 91.1394 178.546 90.2214C179.639 93.2977 177.519 96.7456 175.344 97.4888C174.202 97.8631 173.005 98.0477 171.803 98.0352C166.716 98.0352 162.263 95.1337 157.329 94.3305C157.831 96.8877 160.061 99.5378 158.558 102.297C156.717 105.652 153.154 102.74 151.209 101.101C151.132 104.505 147.799 104.379 146.291 102.74C146.51 106.439 143.013 108.515 140.701 108.275C139.352 108.069 138.097 107.455 137.106 106.516C136.784 106.237 134.275 102.964 134.281 102.958C131.713 104.139 129.423 105.975 126.598 104.909C125.489 104.495 124.579 103.674 124.052 102.614C123.844 102.221 122.702 98.6635 123.167 98.434C119.418 100.27 116.49 104.445 112.14 103.434C111.097 103.188 107.343 97.9149 108.315 97.5215C105.758 98.5378 102.851 98.5378 100.485 96.4287C100.305 100.346 100.676 104.592 97.9115 107.024C95.1467 109.488 91.0814 110.034 87.781 110.034Z" fill="#543424"/>
<path d="M172.59 68.2445C172.557 65.9714 169.082 65.5124 167.88 66.0589C167.845 65.7078 167.789 65.3592 167.711 65.0152L168.896 64.7693C169.749 62.2011 168.65 59.0811 167.257 57.3162C164.886 54.3437 161.716 55.8354 160.197 58.879C159.268 58.6604 158.383 58.5238 157.651 58.4254C152.247 57.7424 146.439 58.6659 141.117 59.8352C139.037 60.3351 136.997 60.9871 135.013 61.7859C131.005 60.6177 126.918 59.7393 122.784 59.1576C109.807 57.5621 96.3105 58.2615 83.6063 62.3378C82.1201 62.8132 75.2626 64.5234 71.8748 66.9167C68.9734 62.8132 64.1813 59.7095 61.5366 58.7533C52.876 55.6333 45.3354 58.7533 37.1884 62.2831L23.2876 71.8782C21.3533 72.7087 19.4299 72.971 18.2497 75.4299C18.7578 75.8779 19.3425 76.9107 19.8561 77.1292C18.4737 77.7412 15.4848 78.1292 17.5557 80.5061C19.8561 83.1835 26.5115 81.2055 28.7081 79.3805C32.0466 84.0141 42.4832 83.26 45.9092 79.3805C48.8708 81.8065 53.3076 82.6589 56.7555 82.8611C59.2909 83.0087 65.3288 82.7682 69.6127 80.5825C71.2783 80.6307 72.9279 80.2446 74.3993 79.4624C76.4155 83.3365 80.4809 80.5826 83.1419 80.3695C86.2237 80.1127 90.0049 81.6863 93.1413 81.9322C97.5618 82.271 102.021 82.4786 106.441 82.5824C104.02 89.358 112.763 85.9593 114.572 86.4073C117.49 87.0958 125.352 92.1666 126.74 85.1014C128.445 84.9812 130.166 85.2052 131.871 85.0741C134.636 84.8719 135.237 82.8119 137.139 81.7956C140.477 80.0143 145.482 83.3146 149.023 78.9488C149.519 78.786 150.027 78.6618 150.542 78.5772C153.651 78.1073 156.252 80.976 159.711 78.2985C161.957 76.5555 160.842 76.4353 163.984 75.7523C165.967 75.3206 168.94 74.5174 167.618 70.8728C168.945 70.7853 172.634 70.9711 172.59 68.2445Z" fill="#3B2519"/>
<path d="M14.6322 67.4578H17.5828C18.0308 62.0319 12.0422 64.0591 14.6322 67.4578ZM13.8453 71.993L15.0256 70.9002C14.3261 70.1461 13.5065 70.6324 13.8726 71.993H13.8453ZM7.55061 76.5228L9.32099 74.9218C7.80742 72.37 5.39773 74.7797 7.55061 76.5228ZM44.5429 84.5168L47.275 86.6478C50.7666 82.211 42.554 81.2438 44.5429 84.5168ZM37.4395 87.1833L39.6252 86.1178C38.8766 84.7736 37.3084 85.4457 37.4559 87.1833H37.4395ZM72.8581 87.1833L76.0109 85.5823C75.3443 81.6208 70.5632 84.6862 72.8854 87.1833H72.8581ZM78.3714 85.5823L80.3385 86.1287C80.344 84.3529 79.0162 84.1999 78.3878 85.5823H78.3714ZM83.6826 84.7845L85.453 85.5823C85.2508 84.3529 84.4202 84.0196 83.699 84.7845H83.6826ZM137.778 88.5166L142.892 87.7134C142.581 81.5443 134.587 86.3746 137.81 88.5166H137.778ZM145.646 86.1178H148.012C147.917 85.8869 147.755 85.6895 147.547 85.5506C147.34 85.4117 147.095 85.3375 146.845 85.3375C146.596 85.3375 146.351 85.4117 146.144 85.5506C145.936 85.6895 145.774 85.8869 145.679 86.1178H145.646ZM147.832 83.1836L150.389 82.9158C149.689 81.6481 147.963 81.282 147.848 83.1836H147.832ZM161.601 81.588L165.148 82.9158C170.104 80.1947 159.858 75.1786 161.618 81.588H161.601ZM168.705 78.3861L170.082 79.987C170.792 78.3423 169.803 77.2058 168.705 78.3861ZM170.89 75.9873L174.038 73.5885C171.787 71.7088 167.639 73.8344 170.869 75.9873H170.89ZM176.398 71.7253L179.13 70.392C179.475 66.283 175.863 68.0096 176.376 71.7253H176.398ZM181.349 71.9493C181.092 71.7252 180.89 71.8291 180.726 72.2553L181.518 73.3208C181.541 72.8557 181.476 72.3904 181.327 71.9493H181.349ZM172.267 85.0632L174.453 85.3255C174.393 83.1727 172.48 82.9705 172.246 85.0523L172.267 85.0632ZM154.782 83.1945H156.749C156.651 81.3421 154.99 81.3749 154.733 83.1836L154.782 83.1945ZM98.1134 87.1943L102.441 90.1231C105.556 87.9374 99.1134 82.894 98.0642 87.1833L98.1134 87.1943ZM92.5564 88.5166L93.3432 87.4237C92.6383 86.6588 92.1575 87.0249 92.5564 88.5166ZM89.9937 95.1774L90.9827 93.5764C89.95 90.6749 87.3764 94.7785 89.9937 95.1774ZM60.4873 86.9156H63.4379C62.8642 85.2326 60.7987 84.8993 60.4818 86.9156H60.4873ZM131.128 93.5818L133.685 91.9808C132.477 89.8771 128.931 92.795 131.122 93.5818H131.128ZM27.4237 87.1833L31.5546 87.9811C31.9043 83.7191 26.0959 83.7628 27.4237 87.1833Z" fill="#774C30"/>
<path d="M173.109 25.6573L139.466 17.1824C139.363 17.1559 139.256 17.143 139.149 17.1441H139.04L62.0284 23.7011C61.7929 23.7138 61.5658 23.7922 61.3726 23.9274C61.1795 24.0626 61.0281 24.2492 60.9355 24.4661L51.1001 46.9237C51.0024 47.145 50.9683 47.389 51.0017 47.6286L54.3294 70.6163C54.3715 70.903 54.5095 71.1671 54.7208 71.3655C54.9321 71.564 55.2044 71.685 55.4932 71.7091L128.254 77.9218H128.363C128.47 77.9202 128.576 77.9074 128.68 77.8836L160.465 69.8731C160.64 69.8281 160.804 69.747 160.946 69.6351C161.088 69.5231 161.205 69.3827 161.29 69.2229L170.579 51.601C170.648 51.4676 170.694 51.3236 170.716 51.1748L173.847 28.444L174.038 27.0506C174.075 26.7456 174.002 26.4373 173.832 26.1817C173.661 25.926 173.405 25.74 173.109 25.6573Z" fill="black"/>
<path d="M52.2861 47.4644L55.6138 70.4575L128.374 76.6648L129.298 54.0377L52.2861 47.4644Z" fill="#61311B"/>
<path d="M129.297 54.0379L128.374 76.6649L160.159 68.66L162.94 45.563L129.297 54.0379Z" fill="#7F4023"/>
<path d="M172.792 26.9082L162.94 45.5628L160.159 68.6598L169.465 51.0324L172.792 26.9082Z" fill="#90563E"/>
<path d="M128.374 76.6648L128.511 73.3535L129.298 54.0377L127.62 53.8957L126.385 73.1732L58.8814 67.5396L52.2861 47.4644L55.6138 70.4575L128.374 76.6648Z" fill="#492514"/>
<path d="M128.374 76.665L160.159 68.6601L160.749 63.7806L128.511 73.3538L128.374 76.665ZM160.858 46.1041L158.186 64.5565L160.733 63.8024L162.918 45.585L160.858 46.1041Z" fill="#67341C"/>
<path d="M160.749 63.7805L160.159 68.66L169.465 51.0326L172.601 28.3018L167.651 49.8415L160.749 63.7805Z" fill="#784734"/>
<path d="M129.298 54.0381L52.2861 47.4647L62.138 25.0016L139.15 18.4282L172.792 26.9086L162.941 45.5632L129.298 54.0381Z" fill="#A16C58"/>
<path d="M56.4062 45.0166L64.0233 45.6668V27.6406L56.4062 45.0166Z" fill="#7F4023"/>
<path d="M64.0234 27.6406V45.6668L129.069 51.2184L138.921 48.7377V21.2476L64.0234 27.6406Z" fill="#3E1802"/>
<path d="M168.667 28.7444L138.92 21.2476V48.7377L161.055 43.1643L168.667 28.7444Z" fill="#512916"/>
<path d="M123.107 0.478333C122.98 0.354566 122.829 0.258172 122.664 0.195188C122.499 0.132203 122.322 0.103986 122.145 0.112245L108.742 0.751541C108.669 0.746196 108.596 0.746196 108.523 0.751541L81.3825 6.71291C81.2637 6.73937 81.1495 6.78361 81.0438 6.84408C81.0237 6.85168 81.0052 6.86278 80.9891 6.87686L28.1563 39.1153C28.0116 39.203 27.8853 39.3181 27.7847 39.4541L21.3151 48.3334C21.1449 48.574 21.0585 48.8639 21.0692 49.1585L22.2932 73.6542C22.3042 73.8582 22.3634 74.0566 22.466 74.2332C22.5687 74.4098 22.7118 74.5595 22.8836 74.6699C23.0554 74.7803 23.251 74.8484 23.4542 74.8685C23.6575 74.8885 23.8626 74.86 24.0527 74.7853L95.8898 46.3007L96.0319 46.2296C96.1119 46.1869 96.187 46.1356 96.256 46.0767L122.566 23.466C122.703 23.3489 122.814 23.2042 122.891 23.0413C122.968 22.8784 123.01 22.701 123.014 22.5207L123.495 1.42909C123.499 1.25245 123.467 1.07685 123.4 0.913258C123.333 0.749662 123.233 0.601591 123.107 0.478333Z" fill="black"/>
<path d="M95.4147 45.1042L23.5775 73.6216L22.3535 49.1258L88.3167 8.84412L122.205 1.39648L121.73 22.4881L95.4147 45.1042Z" fill="#61311B"/>
<path d="M23.5775 73.6216L29.8012 59.8683L28.8231 40.2466L22.3535 49.1258L23.5775 73.6216Z" fill="#90563E"/>
<path d="M121.73 22.4881L122.206 1.39648L108.802 2.01941L108.414 18.9145L121.73 22.4881Z" fill="#90563E"/>
<path d="M95.4149 45.1042L87.3389 37.0282L108.414 18.9146L121.73 22.4881L95.4149 45.1042Z" fill="#7F4023"/>
<path d="M95.4143 45.1038L23.5771 73.6212L29.8008 59.868L87.3383 37.0278L95.4143 45.1038Z" fill="#61311B"/>
<path d="M29.8012 59.868L24.7851 65.0316L22.3535 49.1255L23.5775 73.6212L29.8012 59.868Z" fill="#844F38"/>
<path d="M122.206 1.39648L109.704 1.98115L118.84 3.67506L118.561 21.6411L108.414 18.9145L121.73 22.4881L122.206 1.39648Z" fill="#844F38"/>
<path d="M121.73 22.4881L108.414 18.9146L115.807 23.9853L93.3658 43.0552L87.3389 37.0282L95.4149 45.1042L121.73 22.4881Z" fill="#733920"/>
<path d="M95.4143 45.1038L87.3383 37.0278L90.4256 44.1968L25.4623 69.4521L29.8008 59.868L23.5771 73.6212L95.4143 45.1038Z" fill="#552A17"/>
<path d="M87.3388 37.0279L29.8013 59.868L28.8232 40.2462L81.6616 7.98588L108.802 2.01904L108.414 18.9142L87.3388 37.0279Z" fill="#925D45"/>
<path d="M85.8739 34.6074L32.3908 55.8411L31.6914 41.7655L82.7102 10.6089L105.933 5.50537L105.654 17.6085L85.8739 34.6074Z" fill="#AF8270"/>
<path d="M33.369 54.3222L32.7734 42.3339L83.1092 11.5926L104.851 6.81689L104.616 17.1168L85.3276 33.695L33.369 54.3222Z" fill="#A16C58"/>
<path d="M100.103 57.3874C99.4758 57.3653 98.8627 57.5765 98.3823 57.9802C97.9019 58.3839 97.5882 58.9515 97.502 59.5731C96.1142 59.8791 94.8028 61.2397 94.77 62.5784C94.7372 63.3762 94.7208 63.857 91.5407 63.7423L90.6719 63.6985C86.7978 63.469 86.7759 62.3544 86.7595 61.3763C86.741 60.835 86.5867 60.3072 86.3107 59.8412C86.0348 59.3753 85.6461 58.9862 85.1804 58.7098C85.1804 58.6169 85.1804 58.5185 85.1804 58.4201C85.1978 57.9389 85.0779 57.4626 84.8345 57.047C84.5911 56.6314 84.2343 56.2938 83.806 56.0735C83.3777 55.8533 82.8955 55.7597 82.4159 55.8035C81.9363 55.8473 81.479 56.0269 81.0978 56.3211C80.7165 56.6154 80.4269 57.0121 80.2629 57.4649C80.0989 57.9177 80.0672 58.4079 80.1717 58.8781C80.2761 59.3482 80.5122 59.7789 80.8525 60.1197C81.1928 60.4605 81.6231 60.6974 82.0931 60.8025C82.2944 61.0393 82.4429 61.3163 82.5286 61.615C82.6143 61.9136 82.6354 62.2272 82.5904 62.5347C82.5904 62.6112 82.5248 62.7368 82.4811 62.8734C82.2516 63.5073 81.8254 64.693 82.5576 65.835C83.492 67.2775 86.0055 68.1463 90.2511 68.496C90.7484 68.5343 91.2292 68.5671 91.6882 68.5835C95.5404 68.7256 97.9938 68.0371 98.9719 66.4525C99.2422 66.0046 99.3946 65.4955 99.4146 64.9728C99.4347 64.4501 99.3219 63.9308 99.0867 63.4636C99.0344 63.276 99.0285 63.0785 99.0694 62.8882C99.1103 62.6978 99.1969 62.5203 99.3216 62.3707C99.5123 62.4242 99.7085 62.4554 99.9063 62.4636C100.239 62.4758 100.571 62.4223 100.884 62.3062C101.196 62.19 101.482 62.0135 101.726 61.7867C101.97 61.5599 102.167 61.2873 102.306 60.9843C102.445 60.6814 102.522 60.3541 102.535 60.0211C102.547 59.6882 102.493 59.3561 102.377 59.0438C102.261 58.7316 102.084 58.4452 101.858 58.2012C101.631 57.9571 101.358 57.7601 101.055 57.6214C100.752 57.4828 100.425 57.4051 100.092 57.3929L100.103 57.3874Z" fill="#3E1802"/>
<path d="M100.365 58.901C100.103 58.5779 99.7688 58.3213 99.3889 58.1522C99.009 57.9832 98.5944 57.9065 98.1792 57.9284C96.5892 57.8738 94.8461 59.4529 94.786 60.9992C94.786 61.797 94.7423 62.2779 91.5567 62.1631L90.6879 62.1194C86.8193 61.8899 86.7974 60.7752 86.781 59.7971C86.7515 59.1998 86.5612 58.6216 86.2304 58.1234C85.8996 57.6253 85.4404 57.2256 84.9013 56.9667C84.8238 56.9325 84.7402 56.9139 84.6554 56.9121C84.5698 56.9049 84.4837 56.918 84.4041 56.9503L82.0108 57.8246C81.885 57.8703 81.7762 57.9535 81.699 58.0629C81.6219 58.1723 81.58 58.3027 81.5791 58.4366C81.578 58.5602 81.6124 58.6815 81.6782 58.7862C81.7441 58.8908 81.8387 58.9743 81.9507 59.0267C82.2141 59.2686 82.4142 59.5715 82.5333 59.9087C82.6523 60.246 82.6868 60.6073 82.6337 60.961C82.6337 61.032 82.5736 61.1577 82.5245 61.2943C82.295 61.9281 81.8742 63.1139 82.6064 64.2559C83.5353 65.6984 86.0543 66.5727 90.2945 66.9169C90.7917 66.9606 91.278 66.988 91.7315 67.0043C95.5892 67.1464 98.0426 66.4579 99.0207 64.8733C99.2887 64.4245 99.4393 63.9153 99.4584 63.3929C99.4775 62.8705 99.3645 62.3517 99.13 61.8844C98.824 61.2943 99.7584 60.1741 100.223 59.7479C100.345 59.6481 100.427 59.5071 100.454 59.3513C100.48 59.1954 100.448 59.0353 100.365 58.901Z" fill="black"/>
<path d="M84.6497 57.5786C85.0761 57.785 85.4396 58.1014 85.7028 58.4953C85.966 58.8891 86.1193 59.346 86.1469 59.8189C86.1742 61.3926 86.7425 62.551 90.6712 62.786C94.5999 63.0209 95.4086 62.6111 95.4633 61.0374C95.507 59.8462 96.955 58.5512 98.1954 58.5949C98.5021 58.5758 98.8092 58.6269 99.0933 58.7443C99.3773 58.8618 99.6308 59.0424 99.8346 59.2725C99.8346 59.2725 97.9331 60.95 98.5888 62.2013C99.0095 63.01 100.07 67.0698 90.3925 66.2721C80.7155 65.4743 83.076 62.1849 83.2891 61.1139C83.3785 60.6177 83.3288 60.1066 83.1455 59.6369C82.9623 59.1673 82.6527 58.7575 82.251 58.4529L84.6497 57.5786Z" fill="#4E5555"/>
<path d="M84.6501 57.5786L82.2568 58.4529C82.6586 58.7575 82.9681 59.1673 83.1514 59.6369C83.3346 60.1066 83.3843 60.6177 83.295 61.1139C83.0546 62.2067 80.6886 65.4852 90.3984 66.2721C100.108 67.0589 99.0208 62.9936 98.5946 62.2013C97.9389 60.95 99.8405 59.2725 99.8405 59.2725C99.6367 59.0424 99.3832 58.8618 99.0991 58.7443C98.8151 58.6269 98.508 58.5758 98.2012 58.5949C97.6417 58.604 97.1005 58.7959 96.6603 59.1414C96.8694 59.7084 97.1888 60.2284 97.6001 60.6713C97.3662 61.4932 97.3049 62.3545 97.4198 63.2012C97.6384 64.4361 94.9774 65.2994 90.7864 65.1464C86.5954 64.9935 84.2731 63.7695 84.4917 62.551C84.569 61.5931 84.425 60.6303 84.0709 59.737C84.6338 59.3137 85.1231 58.8004 85.5189 58.2179C85.2712 57.953 84.9767 57.7363 84.6501 57.5786Z" fill="#3D4343"/>
<path d="M85.2459 56.841C85.2282 57.3424 85.0622 57.8274 84.7687 58.2344C84.4753 58.6414 84.0677 58.9522 83.5975 59.1274C83.1274 59.3026 82.6158 59.3344 82.1275 59.2187C81.6393 59.103 81.1963 58.8451 80.8548 58.4775C80.5132 58.1099 80.2884 57.6492 80.2089 57.1538C80.1293 56.6584 80.1985 56.1505 80.4077 55.6945C80.617 55.2384 80.9568 54.8547 81.3843 54.5919C81.8117 54.3291 82.3075 54.199 82.8089 54.2182C83.1412 54.2301 83.4679 54.3075 83.7703 54.4458C84.0726 54.5842 84.3448 54.7808 84.5711 55.0244C84.7975 55.268 84.9736 55.5538 85.0894 55.8655C85.2052 56.1772 85.2583 56.5087 85.2459 56.841Z" fill="black"/>
<path d="M84.6778 56.8248C84.6624 57.2134 84.5321 57.5887 84.3034 57.9034C84.0748 58.218 83.758 58.4578 83.3931 58.5924C83.0282 58.727 82.6316 58.7504 82.2534 58.6597C81.8752 58.569 81.5324 58.3682 81.2683 58.0827C81.0042 57.7972 80.8306 57.4399 80.7695 57.0558C80.7085 56.6716 80.7626 56.2781 80.9252 55.9247C81.0877 55.5714 81.3514 55.2742 81.6828 55.0707C82.0142 54.8671 82.3985 54.7664 82.7872 54.7812C83.0455 54.7911 83.2994 54.8518 83.5343 54.9598C83.7692 55.0679 83.9806 55.2212 84.1562 55.411C84.3318 55.6008 84.4682 55.8234 84.5577 56.066C84.6472 56.3086 84.688 56.5664 84.6778 56.8248Z" fill="#4E5555"/>
<path d="M83.7706 56.2182C83.7703 56.4366 83.7046 56.6499 83.582 56.8306C83.4593 57.0113 83.2853 57.1511 83.0824 57.232C82.8795 57.3129 82.657 57.3311 82.4437 57.2843C82.2304 57.2375 82.0359 57.1279 81.8855 56.9695C81.7351 56.8112 81.6355 56.6114 81.5997 56.3959C81.5639 56.1805 81.5936 55.9592 81.6847 55.7608C81.7759 55.5623 81.9244 55.3957 82.1111 55.2824C82.2979 55.1692 82.5143 55.1145 82.7324 55.1254C83.0127 55.1394 83.2768 55.2607 83.4701 55.4642C83.6634 55.6676 83.771 55.9376 83.7706 56.2182Z" fill="#9DAAAA"/>
<path d="M102.605 58.4419C102.586 58.9429 102.42 59.427 102.126 59.8332C101.832 60.2394 101.424 60.5494 100.955 60.724C100.485 60.8986 99.9735 60.9299 99.4857 60.8141C98.998 60.6983 98.5555 60.4405 98.2143 60.0733C97.873 59.7061 97.6483 59.2459 97.5685 58.751C97.4887 58.2561 97.5574 57.7487 97.7659 57.2928C97.9744 56.8369 98.3134 56.4531 98.74 56.1898C99.1666 55.9265 99.6616 55.7956 100.163 55.8137C100.835 55.8393 101.469 56.1303 101.927 56.623C102.385 57.1156 102.629 57.7698 102.605 58.4419Z" fill="black"/>
<path d="M102.037 58.4202C102.023 58.8089 101.894 59.1846 101.666 59.4999C101.438 59.8152 101.122 60.0559 100.758 60.1915C100.393 60.3272 99.9966 60.3517 99.6181 60.2621C99.2396 60.1724 98.8963 59.9726 98.6313 59.6878C98.3664 59.403 98.1919 59.0461 98.1298 58.6622C98.0676 58.2782 98.1207 57.8844 98.2823 57.5307C98.4439 57.1769 98.7068 56.8789 99.0377 56.6745C99.3685 56.4701 99.7526 56.3683 100.141 56.3821C100.4 56.3913 100.654 56.4513 100.889 56.5587C101.124 56.6661 101.336 56.8188 101.512 57.0081C101.688 57.1974 101.825 57.4196 101.915 57.6619C102.005 57.9042 102.047 58.1618 102.037 58.4202Z" fill="#4E5555"/>
<path d="M101.13 57.819C101.124 58.0359 101.054 58.2463 100.928 58.4232C100.803 58.6002 100.627 58.7357 100.424 58.8126C100.221 58.8894 100 58.9041 99.7887 58.8548C99.5774 58.8055 99.3855 58.6943 99.2376 58.5355C99.0896 58.3767 98.9924 58.1775 98.9581 57.9633C98.9238 57.749 98.954 57.5293 99.045 57.3323C99.136 57.1353 99.2837 56.9698 99.469 56.857C99.6544 56.7442 99.8692 56.6892 100.086 56.6988C100.372 56.7116 100.642 56.8362 100.837 57.0456C101.032 57.2551 101.137 57.5328 101.13 57.819Z" fill="#9DAAAA"/>
<path d="M151.651 54.1417C151.192 54.2702 150.798 54.5658 150.547 54.9703C150.295 55.3748 150.203 55.8589 150.291 56.3274C149.817 56.6203 149.442 57.0474 149.212 57.5544C148.983 58.0614 148.909 58.6253 149.001 59.1742C149.154 59.7916 149.247 60.1577 146.985 60.7096L146.367 60.8571C143.603 61.4637 143.351 60.6167 143.122 59.8736C143.003 59.4734 142.788 59.1085 142.495 58.8104C142.203 58.5123 141.842 58.2902 141.444 58.1633C141.434 58.0878 141.42 58.0129 141.401 57.9393C141.361 57.6846 141.27 57.441 141.131 57.2237C140.993 57.0064 140.811 56.8203 140.597 56.6771C140.382 56.534 140.141 56.437 139.887 56.3922C139.633 56.3475 139.373 56.356 139.123 56.4172C138.873 56.4785 138.638 56.5911 138.433 56.7479C138.229 56.9047 138.06 57.1024 137.936 57.3282C137.812 57.5541 137.736 57.8033 137.714 58.0599C137.691 58.3166 137.722 58.5751 137.805 58.819C137.9 59.2623 138.144 59.6595 138.498 59.9432C138.851 60.227 139.292 60.3799 139.745 60.3763C139.943 60.5194 140.11 60.7021 140.234 60.9128C140.358 61.1234 140.437 61.3575 140.466 61.6003C140.471 61.6913 140.471 61.7825 140.466 61.8735C140.408 62.275 140.441 62.6844 140.561 63.0719C140.681 63.4594 140.885 63.8153 141.16 64.1138C142.122 65.0263 144.073 65.1793 147.127 64.5892C147.482 64.5181 147.826 64.4416 148.154 64.3651C150.886 63.693 152.455 62.6549 152.81 61.2724C152.904 60.8729 152.903 60.4569 152.809 60.0576C152.714 59.6583 152.527 59.2866 152.263 58.972C152.188 58.8396 152.142 58.6921 152.13 58.5401C152.117 58.388 152.139 58.2351 152.192 58.0923C152.339 58.0948 152.486 58.0783 152.629 58.0431C153.114 57.8872 153.521 57.5537 153.769 57.1095C154.017 56.6654 154.087 56.1437 153.966 55.6497C153.845 55.1556 153.541 54.7259 153.115 54.4471C152.69 54.1683 152.175 54.0611 151.673 54.1472L151.651 54.1417Z" fill="#512916"/>
<path d="M152.154 55.2345C151.914 55.0479 151.631 54.923 151.331 54.8706C151.031 54.8183 150.723 54.84 150.433 54.9339C149.302 55.2126 148.417 56.7699 148.706 57.9611C148.859 58.573 148.947 58.9446 146.69 59.4965C146.504 59.5457 146.297 59.5894 146.073 59.6386C143.308 60.2451 143.051 59.4036 142.827 58.6604C142.693 58.2203 142.444 57.8238 142.106 57.5117C141.768 57.1995 141.353 56.9831 140.904 56.8846C140.842 56.8709 140.779 56.8709 140.718 56.8846C140.659 56.9019 140.603 56.9296 140.554 56.9666L139.062 58.114C138.989 58.179 138.935 58.2626 138.905 58.3559C138.875 58.4492 138.87 58.5488 138.892 58.6443C138.914 58.7399 138.961 58.8278 139.028 58.8989C139.096 58.97 139.181 59.0216 139.275 59.0484C139.517 59.1854 139.724 59.3766 139.879 59.607C140.035 59.8374 140.135 60.1007 140.171 60.3762C140.177 60.469 140.177 60.5621 140.171 60.6549C140.113 61.056 140.144 61.4651 140.263 61.8526C140.382 62.2401 140.586 62.5962 140.86 62.8952C141.827 63.8022 143.778 63.988 146.827 63.3705C147.191 63.2977 147.535 63.2212 147.86 63.1411C150.592 62.4744 152.16 61.4308 152.515 60.0484C152.609 59.6488 152.608 59.2329 152.513 58.8337C152.418 58.4344 152.232 58.0627 151.969 57.7479C151.624 57.3655 152.04 56.3218 152.28 55.9011C152.337 55.792 152.356 55.6669 152.333 55.5459C152.31 55.4249 152.247 55.3152 152.154 55.2345Z" fill="black"/>
<path d="M140.844 57.3926C141.2 57.4733 141.528 57.6459 141.797 57.8933C142.065 58.1407 142.264 58.4541 142.374 58.8024C142.729 59.9936 143.379 60.764 146.199 60.1466C149.018 59.5291 149.477 59.0537 149.182 57.8462C149.105 57.348 149.2 56.8384 149.451 56.4014C149.702 55.9644 150.095 55.626 150.564 55.442C150.779 55.3666 151.008 55.3436 151.234 55.375C151.459 55.4063 151.674 55.4911 151.859 55.6222C151.859 55.6222 150.887 57.2615 151.613 58.103C152.083 58.6494 153.701 61.5126 146.734 62.8622C139.767 64.2119 140.723 61.223 140.658 60.3651C140.622 59.9738 140.482 59.5992 140.254 59.2795C140.025 58.9598 139.716 58.7065 139.357 58.5456L140.844 57.3926Z" fill="#606969"/>
<path d="M140.843 57.3926L139.346 58.5456C139.705 58.7065 140.014 58.9598 140.243 59.2795C140.471 59.5992 140.61 59.9738 140.647 60.3651C140.707 61.223 139.756 64.19 146.723 62.8622C153.69 61.5345 152.072 58.6385 151.602 58.103C150.876 57.2834 151.848 55.6222 151.848 55.6222C151.662 55.4911 151.448 55.4063 151.223 55.375C150.997 55.3436 150.768 55.3666 150.553 55.442C150.158 55.5647 149.818 55.8217 149.591 56.1687C149.855 56.5552 150.191 56.8873 150.58 57.1468C150.594 57.821 150.735 58.4866 150.996 59.1084C151.411 60.0045 149.734 61.2012 146.756 61.9279C143.778 62.6546 141.887 62.1956 141.783 61.223C141.632 60.4803 141.324 59.7782 140.882 59.163C141.191 58.7217 141.425 58.2325 141.576 57.715C141.354 57.5624 141.106 57.453 140.843 57.3926Z" fill="#4F5757"/>
<path d="M141.106 56.7209C141.165 57.0775 141.118 57.4436 140.972 57.7742C140.826 58.1048 140.587 58.3856 140.283 58.5822C139.98 58.7788 139.626 58.8827 139.264 58.881C138.903 58.8794 138.55 58.7723 138.248 58.573C137.947 58.3737 137.71 58.0907 137.567 57.7588C137.424 57.4269 137.381 57.0605 137.443 56.7044C137.505 56.3483 137.669 56.018 137.916 55.754C138.163 55.4901 138.482 55.3039 138.833 55.2183C139.333 55.1196 139.852 55.222 140.278 55.5032C140.703 55.7845 141.001 56.2219 141.106 56.7209Z" fill="black"/>
<path d="M140.702 56.8247C140.745 57.1003 140.708 57.3826 140.594 57.6373C140.48 57.8919 140.294 58.108 140.06 58.2589C139.825 58.4098 139.552 58.4892 139.273 58.4873C138.994 58.4854 138.721 58.4024 138.489 58.2483C138.256 58.0942 138.073 57.8757 137.963 57.6195C137.852 57.3633 137.819 57.0805 137.866 56.8056C137.914 56.5306 138.04 56.2755 138.23 56.0712C138.42 55.867 138.666 55.7225 138.937 55.6554C139.326 55.5764 139.73 55.6553 140.061 55.8746C140.392 56.0939 140.623 56.4356 140.702 56.8247Z" fill="#606969"/>
<path d="M139.937 56.546C139.961 56.6979 139.94 56.8537 139.877 56.9941C139.814 57.1345 139.712 57.2536 139.583 57.3368C139.453 57.42 139.302 57.4638 139.149 57.4627C138.995 57.4616 138.845 57.4158 138.716 57.3308C138.588 57.2458 138.487 57.1253 138.427 56.984C138.366 56.8427 138.347 56.6868 138.373 56.5352C138.4 56.3836 138.47 56.2429 138.574 56.1303C138.679 56.0178 138.815 55.9382 138.964 55.9012C139.178 55.8592 139.401 55.9034 139.583 56.024C139.765 56.1447 139.892 56.3322 139.937 56.546Z" fill="#AFBEBE"/>
<path d="M153.63 54.4366C153.687 54.7932 153.64 55.159 153.493 55.489C153.346 55.8191 153.106 56.0991 152.803 56.2949C152.499 56.4907 152.145 56.5938 151.784 56.5914C151.423 56.5891 151.07 56.4814 150.769 56.2817C150.468 56.082 150.231 55.7988 150.089 55.4669C149.946 55.135 149.904 54.7687 149.966 54.4128C150.028 54.057 150.193 53.7271 150.44 53.4634C150.687 53.1998 151.006 53.0139 151.357 52.9285C151.858 52.83 152.377 52.9332 152.803 53.2155C153.229 53.4979 153.526 53.9366 153.63 54.4366Z" fill="black"/>
<path d="M153.209 54.5352C153.253 54.8107 153.215 55.0931 153.101 55.3477C152.987 55.6024 152.802 55.8184 152.567 55.9694C152.332 56.1203 152.059 56.1997 151.78 56.1978C151.501 56.1959 151.228 56.1128 150.996 55.9587C150.763 55.8046 150.581 55.5861 150.47 55.33C150.36 55.0738 150.326 54.791 150.374 54.516C150.421 54.2411 150.548 53.9859 150.738 53.7817C150.928 53.5775 151.173 53.433 151.444 53.3658C151.833 53.2884 152.237 53.3679 152.567 53.5869C152.898 53.806 153.129 54.1468 153.209 54.5352Z" fill="#606969"/>
<path d="M152.46 54.2618C152.493 54.3652 152.505 54.4743 152.494 54.5823C152.483 54.6903 152.45 54.7948 152.396 54.8894C152.343 54.9841 152.271 55.0668 152.185 55.1325C152.099 55.1982 152 55.2455 151.894 55.2714C151.789 55.2973 151.679 55.3012 151.572 55.283C151.465 55.2648 151.363 55.2248 151.272 55.1655C151.181 55.1062 151.104 55.0288 151.044 54.9382C150.984 54.8477 150.944 54.7457 150.925 54.6389C150.892 54.5354 150.881 54.4263 150.892 54.3184C150.903 54.2104 150.936 54.1059 150.989 54.0112C151.042 53.9166 151.114 53.8338 151.2 53.7681C151.287 53.7024 151.386 53.6552 151.491 53.6293C151.596 53.6034 151.706 53.5995 151.813 53.6177C151.92 53.6359 152.022 53.6759 152.113 53.7352C152.204 53.7945 152.282 53.8719 152.341 53.9625C152.401 54.0531 152.442 54.1549 152.46 54.2618Z" fill="#AFBEBE"/>
</svg>
